<?xml version="1.0" encoding="UTF-8" standalone="no"?>
<svg
   xmlns:dc="http://purl.org/dc/elements/1.1/"
   xmlns:cc="http://creativecommons.org/ns#"
   xmlns:rdf="http://www.w3.org/1999/02/22-rdf-syntax-ns#"
   xmlns:svg="http://www.w3.org/2000/svg"
   xmlns="http://www.w3.org/2000/svg"
   xmlns:sodipodi="http://sodipodi.sourceforge.net/DTD/sodipodi-0.dtd"
   xmlns:inkscape="http://www.inkscape.org/namespaces/inkscape"
   inkscape:version="1.0 (6e3e5246a0, 2020-05-07)"
   sodipodi:docname="user.svg"
   version="1.1"
   viewBox="0 0 32 32"
   id="line">
  <metadata
     id="metadata15">
    <rdf:RDF>
      <cc:Work
         rdf:about="">
        <dc:format>image/svg+xml</dc:format>
        <dc:type
           rdf:resource="http://purl.org/dc/dcmitype/StillImage" />
      </cc:Work>
    </rdf:RDF>
  </metadata>
  <sodipodi:namedview
     inkscape:current-layer="line"
     inkscape:window-maximized="0"
     inkscape:window-y="27"
     inkscape:window-x="0"
     inkscape:cy="17.00895"
     inkscape:cx="7.6868438"
     inkscape:zoom="6.4975967"
     showgrid="false"
     id="namedview13"
     inkscape:window-height="480"
     inkscape:window-width="734"
     inkscape:pageshadow="2"
     inkscape:pageopacity="0"
     guidetolerance="10"
     gridtolerance="10"
     objecttolerance="10"
     borderopacity="1"
     bordercolor="#666666"
     pagecolor="#ffffff" />
  <defs
     id="defs4">
    <style
       id="style2">.cls-1{fill:#bfffc8;}.cls-2{fill:#00df8e;}</style>
  </defs>
  <title
     id="title6" />
  <path
     style="fill:#87deaa"
     id="path8"
     d="M16,13.18a6.09,6.09,0,1,1,6.09-6.09A6.09,6.09,0,0,1,16,13.18ZM16,3a4.09,4.09,0,1,0,4.09,4.09A4.09,4.09,0,0,0,16,3Z"
     class="cls-1" />
  <path
     id="path10"
     d="M23,31H9a5.46,5.46,0,0,1-5.45-5.45A10.56,10.56,0,0,1,14.09,15h3.82A10.56,10.56,0,0,1,28.45,25.55,5.46,5.46,0,0,1,23,31ZM14.09,17a8.55,8.55,0,0,0-8.54,8.55A3.46,3.46,0,0,0,9,29H23a3.46,3.46,0,0,0,3.45-3.45A8.55,8.55,0,0,0,17.91,17Z"
     class="cls-2" />
</svg>
